<?xml version="1.0" encoding="UTF-8"?>
<svg version="1.1" xmlns="http://www.w3.org/2000/svg" width="1600" height="900">
<path d="M0 0 C13.86 0 27.72 0 42 0 C42 0.66 42 1.32 42 2 C42.66 2 43.32 2 44 2 C44.01030746 2.72424164 44.02061493 3.44848328 44.03123474 4.19467163 C44.13025558 11.10571117 44.23289304 18.01668915 44.33933926 24.92761803 C44.39390994 28.47841324 44.44720462 32.02921694 44.49731445 35.58007812 C44.73770633 54.75435979 44.73770633 54.75435979 45.47265625 73.9140625 C45.50975204 74.64281586 45.54684784 75.37156921 45.58506775 76.12240601 C45.53789389 79.34463606 45.53789389 79.34463606 47 82 C48.95429688 82.11851603 50.91284229 82.16741538 52.87060547 82.18945312 C54.7605574 82.21452942 54.7605574 82.21452942 56.68869019 82.2401123 C57.36823635 82.24679428 58.04778252 82.25347626 58.74792099 82.26036072 C60.88721155 82.28144737 63.02635474 82.30848505 65.16555786 82.33703613 C69.73531302 82.39685492 74.30514329 82.44863572 78.875 82.5 C113.11539124 82.89078011 113.11539124 82.89078011 124.08984375 83.43359375 C124.79233246 83.46622314 125.49482117 83.49885254 126.21859741 83.5324707 C147.44056464 84.75404862 166.13396595 93.89000024 180.42919922 109.56738281 C189.72699085 120.36373195 198.07173216 133.25106256 202 147 C202.35835937 148.22332031 202.71671875 149.44664062 203.0859375 150.70703125 C207.17847076 165.56599237 207.20662465 180.5606042 207.24023438 195.87963867 C207.25000053 198.56264573 207.28118196 201.24490357 207.3125 203.92773438 C207.37381738 214.10923286 206.54953053 223.10506989 204 233 C203.69170167 234.70541032 203.39666149 236.41337146 203.125 238.125 C202.15415202 243.09345732 200.24443794 247.52030128 198.203125 252.13671875 C197.18393395 254.56226108 196.47113093 256.83927092 195.8125 259.375 C193.03654347 268.13611137 185.73041663 276.93121755 179 283 C178.34 283 177.68 283 177 283 C177 283.66 177 284.32 177 285 C169.79904592 291.62003677 161.87701844 295.87216937 152.625 298.9375 C151.81329346 299.20715576 151.00158691 299.47681152 150.1652832 299.75463867 C147.46035343 300.59027583 144.74571699 301.30998523 142 302 C140.95803467 302.27448975 139.91606934 302.54897949 138.8425293 302.83178711 C125.31782448 305.89621423 111.50603291 305.56709221 97.70797729 305.66996002 C94.81619991 305.69360125 91.92457489 305.72737938 89.03289986 305.76107025 C79.35545232 305.8732209 69.67791365 305.94343609 60 306 C59.2797036 306.004338 58.5594072 306.00867599 57.81728363 306.01314545 C47.71152642 306.07349844 37.60593619 306.10969529 27.5 306.125 C25.64110641 306.12915421 25.64110641 306.12915421 23.74465942 306.13339233 C20.27765728 306.13910489 16.81075191 306.13746792 13.34375 306.1328125 C11.80327248 306.13576576 11.80327248 306.13576576 10.23167419 306.13877869 C9.3012178 306.13568192 8.37076141 306.13258514 7.41210938 306.12939453 C6.19847717 306.12820114 6.19847717 306.12820114 4.96032715 306.12698364 C3 306 3 306 1 305 C0.38490085 278.95576638 -0.08194232 252.91423256 -0.28125 226.86328125 C-0.29079712 225.62159054 -0.30034424 224.37989983 -0.31018066 223.10058212 C-0.37773952 214.17125031 -0.43944499 205.24188165 -0.5 196.3125 C-0.56914811 186.14189743 -0.64097784 175.97132184 -0.71875 165.80078125 C-0.7281983 164.55262634 -0.7376466 163.30447144 -0.74738121 162.01849365 C-0.88814303 143.96386535 -1.15690515 125.91473982 -1.51953125 107.86328125 C-1.94090578 86.84794183 -2.18810279 65.8404304 -2.18530273 44.82080078 C-2.18519675 40.56063105 -2.19938604 36.30061231 -2.21607494 32.04047966 C-2.22712274 28.67598715 -2.229225 25.3115341 -2.22869301 21.9470253 C-2.22986315 20.37057039 -2.23422982 18.79411414 -2.24202538 17.21767807 C-2.2517737 15.06410484 -2.24897996 12.91090281 -2.24291992 10.75732422 C-2.24434494 9.5434201 -2.24576996 8.32951599 -2.24723816 7.0788269 C-2 4 -2 4 0 0 Z M46 122 C45.54570516 124.59795732 45.54570516 124.59795732 45.6257782 127.69384766 C45.61876389 128.90534485 45.61174957 130.11684204 45.60452271 131.36505127 C45.61195106 132.71472332 45.61968223 134.06439373 45.62768555 135.4140625 C45.62525864 136.82981636 45.6215403 138.24556852 45.61662292 139.66131592 C45.60719634 143.51253966 45.61665401 147.36351005 45.62995505 151.21471405 C45.64124795 155.23900911 45.63716372 159.26329131 45.63520813 163.28759766 C45.63432447 170.04659173 45.64542059 176.80548565 45.66381836 183.56445312 C45.68498712 191.38636906 45.68849631 199.20813821 45.6822564 207.03007698 C45.67656784 214.54470896 45.68220239 222.05928907 45.69342995 229.57391357 C45.69808269 232.77643795 45.69894688 235.97893068 45.6968441 239.18145752 C45.69496473 242.95055428 45.70303783 246.71950099 45.7189045 250.48856354 C45.72315829 251.87451812 45.72399057 253.2604879 45.72121429 254.64644623 C45.71800772 256.53302184 45.72827111 258.41960626 45.73930359 260.30615234 C45.74135646 261.36361664 45.74340933 262.42108093 45.74552441 263.5105896 C45.75302998 266.17405197 45.75302998 266.17405197 48 268 C50.74728575 268.31443313 50.74728575 268.31443313 54.00341797 268.2746582 C55.26588348 268.28419022 56.528349 268.29372223 57.82907104 268.30354309 C59.21677681 268.30328142 60.60448259 268.30234318 61.9921875 268.30078125 C63.41789881 268.30467033 64.84360896 268.30900544 66.26931763 268.31376648 C69.2671482 268.32124193 72.26486111 268.3209313 75.26269531 268.31567383 C79.07305686 268.30992698 82.8829247 268.32668603 86.69320488 268.3500185 C89.64467103 268.36489176 92.59602267 268.36560845 95.54751968 268.36250877 C96.94990122 268.36301685 98.35229006 268.36815635 99.75463486 268.37832069 C108.66740371 268.43491026 116.45459388 267.49882088 125 265 C126.45742351 264.68328391 127.91567731 264.37034677 129.375 264.0625 C136.04751758 262.10676209 140.4129104 258.02395528 145 253 C145 252.34 145 251.68 145 251 C145.99 250.67 146.98 250.34 148 250 C148.80212628 248.12612784 148.80212628 248.12612784 149.1875 245.9375 C149.34605469 245.20402344 149.50460938 244.47054687 149.66796875 243.71484375 C149.83232422 242.86599609 149.83232422 242.86599609 150 242 C150.66 242 151.32 242 152 242 C152.46036629 240.64652311 152.91816537 239.292173 153.375 237.9375 C153.75785156 236.80634766 153.75785156 236.80634766 154.1484375 235.65234375 C160.17634068 216.8773609 159.47810195 197.78506998 158.625 178.3125 C158.5943042 177.51682617 158.5636084 176.72115234 158.53198242 175.90136719 C158.33272584 172.14065705 158.13224725 170.19837087 156 167 C155.69140625 164.8359375 155.69140625 164.8359375 155.5625 162.375 C154.94165512 155.04260784 153.3499615 148.3499615 148 143 C147.34 143 146.68 143 146 143 C145.93554688 142.45214844 145.87109375 141.90429688 145.8046875 141.33984375 C143.46186936 134.5274745 135.14796203 128.14369663 128.8125 125 C113.26059897 119.27523379 97.54472248 119.55950397 81.17749023 119.66381836 C77.81940317 119.68374949 74.46225556 119.6869811 71.10418224 119.68030071 C67.87541051 119.6761671 64.64671872 119.68810742 61.41796875 119.69921875 C60.21496628 119.69830734 59.01196381 119.69739594 57.77250671 119.69645691 C56.66317276 119.70598892 55.55383881 119.71552094 54.41088867 119.7253418 C53.43544601 119.72994919 52.46000336 119.73455658 51.45500183 119.73930359 C48.74479612 119.83521435 48.74479612 119.83521435 46 122 Z " fill="#1B1B1B" transform="translate(55,248)"/>
<path d="M0 0 C12.56428532 -0.02349281 25.12856516 -0.04109853 37.69286823 -0.05181217 C43.53117478 -0.05696219 49.36946596 -0.06391035 55.20776367 -0.07543945 C100.03375525 -0.1609377 100.03375525 -0.1609377 118.7351284 0.22653389 C120.16422801 0.25448407 121.59344819 0.27698641 123.02272987 0.29313469 C138.96040293 0.48952905 154.17945628 4.33528243 167 14 C167.99 14.33 168.98 14.66 170 15 C171.54296875 16.56640625 171.54296875 16.56640625 173.1875 18.5625 C179.30137941 26.22370889 179.30137941 26.22370889 187 32 C187.71949183 33.64455275 188.36971413 35.31923769 189 37 C190.05374681 39.31013724 191.11983847 41.6139611 192.1953125 43.9140625 C193 46 193 46 193 49 C193.66 49 194.32 49 195 49 C200.89870608 64.09050563 204.21506915 77.56193236 203.92163086 93.81542969 C204.00078839 96.02197678 204.42467129 97.87602963 205 100 C205.09053693 101.68558459 205.13009203 103.37449336 205.125 105.0625 C205.12757813 105.91972656 205.13015625 106.77695312 205.1328125 107.66015625 C205 110 205 110 204 113 C203.9247459 115.08412042 203.85407168 117.16857389 203.8137207 119.25366211 C203.35276861 137.76415578 199.14233299 153.68070603 191.125 170.3125 C190.82880768 170.93051483 190.53261536 171.54852966 190.22744751 172.18527222 C186.54152672 179.79556603 182.53284019 186.59615348 177 193 C175.93072266 194.25296875 175.93072266 194.25296875 174.83984375 195.53125 C158.14588644 212.80795325 135.4065274 219.78649564 112 222 C111.06293213 222.09047607 110.12586426 222.18095215 109.16040039 222.27416992 C95.81693326 223.36141539 82.43924741 223.10884684 69.0625 223.0625 C66.52929776 223.05747477 63.99609455 223.05291367 61.46289062 223.04882812 C55.30857239 223.03790404 49.1542908 223.02124711 43 223 C43.00222061 223.82304123 43.00444122 224.64608246 43.00672913 225.49406433 C43.02688415 233.30428702 43.04205097 241.11449684 43.05181217 248.92473888 C43.05699941 252.93868825 43.06402015 256.95261588 43.07543945 260.96655273 C43.08641786 264.85044375 43.09230803 268.73431403 43.09487724 272.61821938 C43.09670486 274.08954507 43.1002727 275.5608698 43.10573006 277.03218651 C43.13786121 286.06575396 42.85122925 295.00143726 42 304 C31.88910069 304.80614507 21.8320245 305.133615 11.6875 305.1875 C10.48891357 305.20039062 9.29032715 305.21328125 8.05541992 305.2265625 C6.92724854 305.22785156 5.79907715 305.22914063 4.63671875 305.23046875 C3.62311279 305.23457764 2.60950684 305.23868652 1.56518555 305.24291992 C-1 305 -1 305 -4 303 C-4.36914349 300.30197716 -4.36914349 300.30197716 -4.36076355 296.79916382 C-4.36332682 296.15633725 -4.3658901 295.51351068 -4.36853105 294.85120451 C-4.37349024 292.68749805 -4.35694197 290.52448249 -4.34057617 288.36083984 C-4.33973036 286.81376665 -4.34020415 285.26669225 -4.34190369 283.71961975 C-4.34276685 279.51108995 -4.32508945 275.30281502 -4.30418181 271.09434462 C-4.28546826 266.69943491 -4.28366879 262.30451981 -4.28010559 257.90957642 C-4.27076943 249.58329256 -4.24613448 241.25712643 -4.21605712 232.93089449 C-4.18256189 223.45341504 -4.16603939 213.97593005 -4.15097082 204.49840617 C-4.11958624 184.99887063 -4.06679532 165.49944477 -4 146 C-3.34 146 -2.68 146 -2 146 C-2.00222061 145.15776886 -2.00444122 144.31553772 -2.00672913 143.44778442 C-2.02684287 135.474751 -2.04203035 127.50172622 -2.05181217 119.52867317 C-2.05701029 115.43056269 -2.06405157 111.33247333 -2.07543945 107.234375 C-2.08637821 103.27269155 -2.09229992 99.3110283 -2.09487724 95.3493309 C-2.09671182 93.84482379 -2.10029391 92.34031766 -2.10573006 90.83581924 C-2.1303992 83.71945272 -2.06712345 76.70280061 -1.23927307 69.62747192 C-0.68711013 63.56413758 -0.7551339 57.45248593 -0.68359375 51.3671875 C-0.6629769 49.87931809 -0.64197936 48.39145392 -0.62062073 46.90359497 C-0.56588781 43.02067346 -0.51626715 39.13770348 -0.46777344 35.25469971 C-0.4171981 31.27913183 -0.36170171 27.30363283 -0.30664062 23.328125 C-0.19965738 15.55214195 -0.09808411 7.77610094 0 0 Z M45 41 C44.40929116 43.76617411 44.40929116 43.76617411 44.51225281 46.86515808 C44.50530899 48.06402145 44.49836517 49.26288483 44.49121094 50.49807739 C44.504021 51.80993011 44.51683105 53.12178284 44.5300293 54.47338867 C44.52952043 55.87135481 44.52726427 57.26932124 44.52339172 58.6672821 C44.51797232 62.46057187 44.53738165 66.25337327 44.56149268 70.04657531 C44.58277626 74.01258699 44.58219327 77.97859666 44.58418274 81.94465637 C44.59062987 88.60178037 44.6118788 95.25872059 44.64331055 101.91577148 C44.68365076 110.4710645 44.70100488 119.02623791 44.71061993 127.58161449 C44.71890909 134.9273905 44.73614797 142.27314099 44.75565743 149.61889482 C44.76173166 151.9854988 44.76687047 154.35210376 44.7720089 156.71870995 C44.78076905 160.42952585 44.79505552 164.14028197 44.8137188 167.85106087 C44.82279752 169.87019796 44.82702665 171.889355 44.83114624 173.9085083 C44.83830154 175.0989122 44.84545685 176.2893161 44.85282898 177.51579285 C44.85710246 178.55683261 44.86137594 179.59787237 44.86577892 180.67045879 C44.73856358 182.96031762 44.73856358 182.96031762 46 184 C47.78276641 184.09902539 49.5694665 184.12799184 51.35498047 184.12939453 C53.07344681 184.13412277 53.07344681 184.13412277 54.82662964 184.13894653 C56.07751373 184.1369223 57.32839783 184.13489807 58.6171875 184.1328125 C59.89925079 184.13376923 61.18131409 184.13472595 62.50222778 184.13571167 C65.22773432 184.13719009 67.95320819 184.135033 70.67871094 184.13037109 C74.14264533 184.12473033 77.60650128 184.12791548 81.07043266 184.13394356 C84.3985235 184.1384734 87.72659445 184.13527766 91.0546875 184.1328125 C92.90065018 184.13584885 92.90065018 184.13584885 94.78390503 184.13894653 C113.64112641 184.08845153 125.86342559 180.7350111 139.4765625 167.55078125 C140.30929687 166.70902344 141.14203125 165.86726562 142 165 C142.75023437 164.28457031 143.50046875 163.56914062 144.2734375 162.83203125 C146.56704048 160.3983213 147.04895774 158.20976763 148 155 C149.04271275 152.44575791 150.11236046 149.90461528 151.1953125 147.3671875 C152.21456448 144.78550876 152.21456448 144.78550876 152 141 C152.66 141 153.32 141 154 141 C156.58449144 131.1433148 156.30426373 121.13672126 156.26074219 111.03051758 C156.25003753 108.07287023 156.26067323 105.11583184 156.2734375 102.15820312 C156.38357383 87.95473369 156.38357383 87.95473369 154 74 C153.67 73.67 153.34 73.34 153 73 C152.87625 71.741875 152.7525 70.48375 152.625 69.1875 C152.2145275 65.58303838 151.45950801 63.74329739 149 61 C148.57460937 60.24976563 148.14921875 59.49953125 147.7109375 58.7265625 C142.02954131 49.67264803 132.34634091 41.04579817 121.81663513 38.46482849 C113.89131442 36.88415732 106.1262837 36.67281786 98.06640625 36.6640625 C96.65681326 36.6576195 95.24722156 36.65089008 93.83763123 36.64389038 C90.90710339 36.63201137 87.97669273 36.6282007 85.04614258 36.62939453 C81.29454897 36.62959932 77.54369933 36.60209326 73.79228306 36.56785011 C70.89176471 36.54562734 67.99142844 36.54155524 65.09083366 36.54261398 C63.70694304 36.54025891 62.32304733 36.53144051 60.93924141 36.51594925 C59.01110746 36.49635007 57.08275104 36.5046342 55.15454102 36.51416016 C53.51220238 36.5098851 53.51220238 36.5098851 51.83668518 36.50552368 C48.23600985 37.13317482 47.25288728 38.16057612 45 41 Z " fill="#1B1B1B" transform="translate(1037,336)"/>
<path d="M0 0 C1.12581482 0.00142502 2.25162964 0.00285004 3.41156006 0.00431824 C4.68759094 0.00124161 5.96362183 -0.00183502 7.27832031 -0.00500488 C8.68178481 0.0019019 10.08524758 0.00916953 11.4887085 0.01676941 C12.93204711 0.01796261 14.3753865 0.01841408 15.81872559 0.01815796 C18.85525328 0.01972531 21.89166352 0.0280232 24.92816162 0.04142761 C28.78076545 0.05823583 32.633238 0.0622471 36.48587418 0.06148243 C39.47515063 0.06175765 42.46439954 0.06729731 45.45366669 0.07448387 C46.87112978 0.07762424 48.28859594 0.07962685 49.70606232 0.08037758 C62.28333601 0.09430581 74.85793715 0.38916326 87.2230835 2.87223816 C88.06169922 3.04046082 88.90031494 3.20868347 89.76434326 3.38200378 C102.39573411 6.12655506 114.35911608 10.8104487 122.4730835 21.24723816 C123.13566162 22.09286316 123.79823975 22.93848816 124.480896 23.80973816 C125.09706787 24.61411316 125.71323975 25.41848816 126.3480835 26.24723816 C126.88046631 26.90723816 127.41284912 27.56723816 127.96136475 28.24723816 C132.4300238 34.69217741 133.83624058 42.79641306 134.855896 50.42301941 C135.26618593 53.27998064 135.26618593 53.27998064 136.3638134 55.99427223 C137.43800085 59.54441074 137.59433539 62.41476443 137.58859253 66.11891174 C137.59030138 66.78557377 137.59201023 67.45223581 137.59377086 68.13909972 C137.59704911 70.35933938 137.58608989 72.57927271 137.57513428 74.79948425 C137.5745698 76.39640801 137.57488743 77.99333228 137.57601929 79.59025574 C137.57659238 83.91625443 137.56484503 88.24214188 137.55087137 92.56811476 C137.53835686 97.09246727 137.53719294 101.61682242 137.53482056 106.14118958 C137.52860791 114.7045952 137.5122 123.26794968 137.49212158 131.8313328 C137.46975588 141.58218613 137.45876746 151.33304192 137.44873071 161.08391452 C137.42783359 181.13838427 137.39266178 201.19280799 137.3480835 221.24723816 C133.70117778 222.57225239 130.58929133 223.49727438 126.70523071 223.49447632 C125.38892166 223.50076805 125.38892166 223.50076805 124.04602051 223.50718689 C123.10139954 223.50156738 122.15677856 223.49594788 121.18353271 223.49015808 C120.17471039 223.49205643 119.16588806 223.49395477 118.12649536 223.49591064 C114.80184077 223.49960639 111.47740607 223.48893204 108.152771 223.47770691 C105.83922349 223.47651442 103.52567549 223.47606209 101.21212769 223.47631836 C96.36858073 223.47475562 91.5251079 223.46648102 86.68157959 223.45304871 C80.46952767 223.43604027 74.25755703 223.43223505 68.04548454 223.43299389 C63.2706118 223.43272216 58.49575687 223.42724081 53.72089005 223.41999245 C51.42992411 223.41680827 49.13895616 223.41483896 46.84798813 223.41409874 C43.64990541 223.41193362 40.45190935 223.40318607 37.25384521 223.39250183 C36.30517578 223.39295502 35.35650635 223.3934082 34.37908936 223.39387512 C33.50718964 223.38961014 32.63528992 223.38534515 31.73696899 223.38095093 C30.98151731 223.37927508 30.22606564 223.37759924 29.44772148 223.37587261 C27.29817547 223.24418054 25.42912251 222.78097556 23.3480835 222.24723816 C20.6887424 222.14281989 18.05075621 222.08639125 15.39105225 222.07145691 C13.78622199 222.04821952 12.1814043 222.02410072 10.57659912 221.99919128 C8.07367005 221.96443851 5.57119245 221.93493194 3.0680542 221.92131042 C-18.53742038 221.78105717 -37.64020262 216.75305271 -53.6519165 201.24723816 C-66.80330756 186.76518359 -70.83835575 172.09640069 -70.89215088 152.80412292 C-70.90190856 150.68646205 -70.93302164 148.56975246 -70.9644165 146.45231628 C-70.97094366 145.09099384 -70.97619526 143.72966456 -70.9800415 142.36833191 C-70.98938721 141.14557556 -70.99873291 139.92281921 -71.00836182 138.66300964 C-70.61539396 134.89724717 -69.49776692 132.5221626 -67.6519165 129.24723816 C-67.15147608 127.6347079 -66.69020126 126.00927516 -66.2769165 124.37223816 C-64.82751432 119.35565444 -62.66965961 115.47891759 -59.6519165 111.24723816 C-59.18656494 110.57821472 -58.72121338 109.90919128 -58.24176025 109.21989441 C-56.76983395 107.17489814 -55.23875692 105.20421009 -53.6519165 103.24723816 C-53.16336182 102.6375116 -52.67480713 102.02778503 -52.17144775 101.39958191 C-43.39391957 91.53840827 -30.02810363 88.56743463 -17.4019165 87.49333191 C-15.62677952 87.42268421 -15.62677952 87.42268421 -14.6519165 86.24723816 C-13.2985106 86.15192653 -11.94017666 86.12535096 -10.5834198 86.12698364 C-9.70697311 86.12560898 -8.83052643 86.12423431 -7.92752075 86.12281799 C-6.47419846 86.12821091 -6.47419846 86.12821091 -4.99151611 86.13371277 C-3.97699875 86.13356674 -2.96248138 86.13342072 -1.91722107 86.13327026 C1.45378723 86.13396987 4.82474104 86.14176447 8.19573975 86.14958191 C10.52601593 86.15144592 12.8562925 86.1528699 15.18656921 86.15386963 C21.33345615 86.15769614 27.48031963 86.16752756 33.62719727 86.17857361 C39.89418216 86.18878487 46.16117082 86.19336664 52.42816162 86.19841003 C64.73481258 86.20914971 77.04144609 86.22622772 89.3480835 86.24723816 C89.29588483 81.91294893 89.20072757 77.58060309 89.0980835 73.24723816 C89.08390381 72.02649597 89.06972412 70.80575378 89.05511475 69.54801941 C88.79280434 59.84253454 87.1071203 53.45691205 80.0980835 46.37223816 C76.1221872 42.62187893 72.83032447 40.68689415 67.3480835 40.24723816 C66.17890381 40.1531366 65.00972412 40.05903503 63.80511475 39.96208191 C61.31325226 39.78173304 58.81959526 39.62422325 56.324646 39.49333191 C53.3480835 39.24723816 53.3480835 39.24723816 51.3480835 38.24723816 C49.1327162 38.12628775 46.91374346 38.06974644 44.69525146 38.04191589 C44.01220947 38.0320163 43.32916748 38.0221167 42.62542725 38.01191711 C40.36374397 37.98028507 38.10203967 37.95553805 35.840271 37.93083191 C34.27370655 37.91026384 32.70714767 37.88926741 31.14059448 37.86785889 C27.01424668 37.81262293 22.88784866 37.76322041 18.76141357 37.7150116 C14.55197676 37.66480768 10.34261299 37.60911583 6.13323975 37.55387878 C-2.12841727 37.44627858 -10.39013533 37.34483777 -18.6519165 37.24723816 C-18.07799203 32.91576846 -17.49554328 29.31372065 -15.5894165 25.37223816 C-15.14855713 24.44798035 -14.70769775 23.52372253 -14.253479 22.57145691 C-13.72496338 21.47446472 -13.19644775 20.37747253 -12.6519165 19.24723816 C-11.97000118 17.77561218 -11.29046995 16.30287999 -10.612854 14.82926941 C-9.89696626 13.28097297 -9.18082047 11.73279581 -8.4644165 10.18473816 C-8.11951172 9.43402039 -7.77460693 8.68330261 -7.41925049 7.90983582 C-3.89257458 0.3629047 -3.89257458 0.3629047 0 0 Z M-17.6519165 134.24723816 C-21.59168516 140.7047288 -22.03835156 147.55587357 -22.1519165 154.93473816 C-22.17052734 155.73033142 -22.18913818 156.52592468 -22.20831299 157.34562683 C-22.14878504 162.91062332 -21.07109166 167.72873143 -17.6519165 172.24723816 C-16.6619165 172.57723816 -15.6719165 172.90723816 -14.6519165 173.24723816 C-13.4644165 175.30973816 -13.4644165 175.30973816 -12.6519165 177.24723816 C-11.9919165 177.24723816 -11.3319165 177.24723816 -10.6519165 177.24723816 C-10.3219165 178.23723816 -9.9919165 179.22723816 -9.6519165 180.24723816 C-5.22983422 182.16429183 -0.67306676 182.82337975 4.0824585 183.35783386 C5.191586 183.48427135 5.191586 183.48427135 6.32312012 183.61326313 C14.745781 184.4973327 23.13820035 184.51830366 31.5980835 184.47770691 C33.27532923 184.47651069 34.95257564 184.47606288 36.62982178 184.47631836 C40.1020339 184.4747724 43.57414014 184.46661902 47.04632568 184.45304871 C51.50399524 184.43584757 55.9615516 184.43224139 60.41925049 184.43299389 C63.86262091 184.43272306 67.30596644 184.42725938 70.74932861 184.41999245 C72.39524142 184.41680839 74.04115703 184.41483898 75.68707275 184.41409874 C77.96735553 184.41194439 80.24751458 184.40322636 82.527771 184.39250183 C84.47272461 184.38678413 84.47272461 184.38678413 86.45697021 184.38095093 C89.2424489 184.57743385 89.2424489 184.57743385 90.3480835 183.24723816 C90.44189652 181.40605786 90.46552304 179.56126175 90.46160889 177.71769714 C90.46153336 176.53654831 90.46145782 175.35539948 90.46138 174.13845825 C90.45621872 172.85306656 90.45105743 171.56767487 90.44573975 170.24333191 C90.4443248 168.93518021 90.44290985 167.6270285 90.44145203 166.27923584 C90.43762759 162.79560957 90.42779796 159.31202476 90.41674805 155.82841492 C90.40653232 152.27597108 90.40195406 148.72352057 90.39691162 145.17106628 C90.38617562 138.19643984 90.36910009 131.22184099 90.3480835 124.24723816 C78.50827732 124.15438395 66.66855838 124.08339481 54.82846165 124.03998947 C49.33006959 124.01915258 43.83192745 123.99090604 38.3336792 123.94548035 C33.02333572 123.90188377 27.713232 123.87807175 22.40272331 123.86772919 C20.38100348 123.8603626 18.35929614 123.84597747 16.33767891 123.82431793 C13.49654341 123.79510041 10.65638709 123.79128981 7.81512451 123.7931366 C6.98721405 123.77875549 6.15930359 123.76437439 5.30630493 123.7495575 C-3.44259462 123.81072568 -12.03635186 127.35144117 -17.6519165 134.24723816 Z " fill="#046B03" transform="translate(503.65191650390625,333.7527618408203)"/>
<path d="M0 0 C1.81899811 -0.00450165 1.81899811 -0.00450165 3.67474365 -0.00909424 C5.64800629 0.00942596 5.64800629 0.00942596 7.66113281 0.02832031 C9.03338412 0.03138245 10.40563854 0.03325511 11.77789307 0.03399658 C14.66308403 0.03860459 17.54799671 0.05303005 20.43310547 0.07519531 C24.08717309 0.10315883 27.74101914 0.11437523 31.39518356 0.11887741 C34.92136054 0.12410754 38.44748501 0.13860592 41.97363281 0.15332031 C43.91045929 0.15969513 43.91045929 0.15969513 45.88641357 0.16619873 C57.80313225 0.25775506 69.87620602 0.44835917 81.55175781 3.04394531 C82.34251709 3.21837158 83.13327637 3.39279785 83.94799805 3.57250977 C99.50543924 7.17658025 111.18125388 12.21234097 121.11425781 25.35644531 C122.36425781 28.16894531 122.36425781 28.16894531 123.11425781 30.35644531 C123.77425781 30.35644531 124.43425781 30.35644531 125.11425781 30.35644531 C134.59349603 50.97230562 133.80524246 73.23968293 133.6212275 95.40101886 C133.58951022 99.87985967 133.58699816 104.35872594 133.58110046 108.83766174 C133.56569302 117.28022135 133.5248463 125.72244886 133.47435302 134.16486365 C133.4180462 143.79273612 133.3908702 153.42062626 133.36587584 163.04862297 C133.3139153 182.8180809 133.2262342 202.58724201 133.11425781 222.35644531 C121.18640706 222.51137994 109.25849227 222.65953881 97.33045483 222.79940891 C91.78983691 222.8645843 86.24926521 222.93196052 80.70874023 223.00463867 C75.34656027 223.07489185 69.98433674 223.13900855 64.62203407 223.19914055 C62.59184488 223.22293336 60.5616789 223.24881579 58.53154564 223.27697945 C47.10865712 223.43392589 35.77679771 223.32539629 24.37348938 222.60348511 C19.91419969 222.32489549 15.45573849 222.2052686 10.98925781 222.11035156 C10.21202519 222.09289572 9.43479258 222.07543987 8.63400745 222.05745506 C5.7074307 221.99216811 2.78086901 221.93053792 -0.14599609 221.87963867 C-11.80298659 221.6692737 -23.09281245 221.18382843 -33.88574219 216.35644531 C-34.80097656 215.95683594 -35.71621094 215.55722656 -36.65917969 215.14550781 C-46.31562418 210.65240639 -54.32867179 204.78501288 -60.88574219 196.35644531 C-61.67658203 195.56753906 -61.67658203 195.56753906 -62.48339844 194.76269531 C-74.78655274 182.42527039 -74.37642812 163.97273924 -74.40917969 147.87207031 C-74.2811124 128.91883998 -68.51173804 114.88517838 -54.94824219 101.29394531 C-54.38234375 100.76671875 -53.81644531 100.23949219 -53.23339844 99.69628906 C-51.7630984 98.37697791 -51.7630984 98.37697791 -50.88574219 96.35644531 C-47.64768901 94.79738267 -44.24483341 93.63024418 -40.88574219 92.35644531 C-40.2425 92.07414062 -39.59925781 91.79183594 -38.93652344 91.50097656 C-33.39440846 89.13265411 -27.72088689 88.50618709 -21.76464844 87.78613281 C-18.99566278 87.66469187 -18.99566278 87.66469187 -17.88574219 86.35644531 C-16.53233629 86.26113369 -15.17400234 86.23455812 -13.81724548 86.2361908 C-12.9407988 86.23481613 -12.06435211 86.23344147 -11.16134644 86.23202515 C-9.70802414 86.23741806 -9.70802414 86.23741806 -8.2253418 86.24291992 C-7.21082443 86.2427739 -6.19630707 86.24262787 -5.15104675 86.24247742 C-1.78003846 86.24317702 1.59091536 86.25097163 4.96191406 86.25878906 C7.29219024 86.26065307 9.62246682 86.26207706 11.95274353 86.26307678 C18.09963047 86.26690329 24.24649394 86.27673471 30.39337158 86.28778076 C36.66035647 86.29799202 42.92734513 86.30257379 49.19433594 86.30761719 C61.50098689 86.31835686 73.80762041 86.33543488 86.11425781 86.35644531 C86.09119889 82.23025501 86.01353604 78.10674861 85.92675781 73.98144531 C85.92095703 72.82515625 85.91515625 71.66886719 85.90917969 70.47753906 C85.66353151 60.81537754 83.30843833 52.77896233 76.23925781 45.85644531 C69.7245963 39.86054388 62.63078236 40.04540355 54.12597656 39.60253906 C51.11425781 39.35644531 51.11425781 39.35644531 49.11425781 38.35644531 C46.83764136 38.23532434 44.55749864 38.17892386 42.27783203 38.15112305 C41.5752829 38.14122345 40.87273376 38.13132385 40.14889526 38.12112427 C37.82227978 38.08948851 35.49564387 38.06474372 33.16894531 38.04003906 C31.55754052 38.01947132 29.94614115 37.9984749 28.33474731 37.97706604 C24.09003075 37.92182677 19.84526535 37.8724257 15.60046387 37.82421875 C11.27038213 37.77401725 6.94037146 37.71832414 2.61035156 37.66308594 C-5.8882863 37.55548168 -14.38698354 37.45404177 -22.88574219 37.35644531 C-22.19527456 32.75880455 -21.07087063 29.13166555 -19.07324219 24.91894531 C-18.53441406 23.78199219 -17.99558594 22.64503906 -17.44042969 21.47363281 C-16.25894167 19.10471964 -15.04932656 16.81669964 -13.69824219 14.54394531 C-11.94021514 11.45224258 -10.77905427 8.52201079 -9.69433594 5.15332031 C-7.55774659 0.40534398 -4.99994933 -0.01707884 0 0 Z M-21.41308594 133.08691406 C-25.94241602 140.06712832 -26.29325331 147.31238161 -26.07324219 155.41894531 C-26.05970703 156.37994141 -26.04617188 157.3409375 -26.03222656 158.33105469 C-25.99726525 160.67346283 -25.94820323 163.01463687 -25.88574219 165.35644531 C-25.22574219 165.35644531 -24.56574219 165.35644531 -23.88574219 165.35644531 C-23.80839844 166.24847656 -23.73105469 167.14050781 -23.65136719 168.05957031 C-22.74706486 171.95360684 -21.49235309 173.36334213 -18.63574219 176.10644531 C-17.86746094 176.86441406 -17.09917969 177.62238281 -16.30761719 178.40332031 C-5.84962482 186.83718512 13.18401711 184.63355912 25.95800781 184.55175781 C27.70633785 184.54801561 29.45467002 184.54517437 31.20300293 184.54318237 C35.74682676 184.53564076 40.29051741 184.51607686 44.83428955 184.49377441 C49.49400024 184.47310869 54.153733 184.4641369 58.81347656 184.45410156 C67.91379467 184.43281942 77.01401505 184.39880195 86.11425781 184.35644531 C87.15703411 181.22811643 87.23502627 179.06455445 87.2277832 175.78344727 C87.22770767 174.642491 87.22763214 173.50153473 87.22755432 172.32600403 C87.22239304 171.09468246 87.21723175 169.8633609 87.21191406 168.59472656 C87.21049911 167.33379684 87.20908417 166.07286713 87.20762634 164.77372742 C87.20297356 161.42492823 87.19399123 158.0761972 87.18292236 154.72741699 C87.17268469 151.30884388 87.16812367 147.89026372 87.16308594 144.47167969 C87.1520488 137.7665827 87.13530468 131.06151794 87.11425781 124.35644531 C75.16133796 124.26354943 63.20850475 124.19258093 51.25529671 124.14919662 C45.70424728 124.12836877 40.15344581 124.10013891 34.60253906 124.0546875 C29.24032039 124.01105848 23.87833943 123.98727212 18.51595688 123.97693634 C16.47552629 123.96957554 14.43510793 123.95520186 12.39477921 123.93352509 C-6.0767044 123.64505748 -6.0767044 123.64505748 -21.41308594 133.08691406 Z " fill="#1A1B1A" transform="translate(1332.8857421875,335.6435546875)"/>
<path d="M0 0 C16.15200632 -0.07038276 32.30396215 -0.12313044 48.45608521 -0.15543652 C55.95742957 -0.17084194 63.45867812 -0.19180888 70.95996094 -0.22631836 C77.50545193 -0.25641614 84.05087345 -0.27562083 90.59643173 -0.28226548 C94.05558636 -0.28614363 97.51454244 -0.29512198 100.97363281 -0.31719017 C134.80109821 -0.52459281 134.80109821 -0.52459281 150.125 5.9375 C151.30320312 6.42089844 152.48140625 6.90429688 153.6953125 7.40234375 C169.47385614 15.03050492 179.14851872 27.87871795 185.27197266 43.85693359 C186.84968045 48.50117202 187.68909341 53.25720724 188.4921875 58.0859375 C188.84350504 60.92619572 188.84350504 60.92619572 190 63 C191.23835054 74.88139183 191.07851178 87.0570436 191.05859375 98.9921875 C191.05754639 100.19022507 191.05649902 101.38826263 191.05541992 102.62260437 C191.01806322 123.81611242 190.75139148 145.00947434 190.53643799 166.20172119 C190.47506344 172.28355895 190.41534435 178.36541296 190.35546875 184.44726562 C190.23856147 196.29819317 190.11987589 208.14910214 190 220 C184.3951235 220.16797489 178.79010111 220.32849605 173.18481445 220.48217773 C171.27883186 220.53547721 169.37290462 220.59079669 167.46704102 220.64819336 C164.72424248 220.73044156 161.98132557 220.80537262 159.23828125 220.87890625 C157.96456413 220.91945885 157.96456413 220.91945885 156.66511536 220.96083069 C155.86466293 220.98092697 155.06421051 221.00102325 154.23950195 221.02172852 C153.19026299 221.05170677 153.19026299 221.05170677 152.11982727 221.08229065 C149.66768855 220.98709983 147.39169775 220.53359475 145 220 C144.99503478 218.89150743 144.99503478 218.89150743 144.98996925 217.76062107 C144.9086533 199.75679772 144.81653279 181.7530591 144.71247292 163.74935246 C144.66240875 155.04279896 144.61596524 146.33625459 144.578125 137.62963867 C144.54512381 130.03856682 144.50524798 122.44756708 144.45720994 114.85657495 C144.43202556 110.83937978 144.41022074 106.82223194 144.39665604 102.80497932 C144.38376218 99.01862793 144.36162996 95.23243955 144.33261681 91.44617844 C144.32359797 90.06156497 144.31786421 88.67692529 144.31578636 87.29228401 C144.29871909 77.64073836 143.48048896 69.08794339 140 60 C139.78085937 59.39671875 139.56171875 58.7934375 139.3359375 58.171875 C136.57090479 51.6081525 131.59169243 47.26611593 126 43 C124.515 42.505 124.515 42.505 123 42 C122.67 41.34 122.34 40.68 122 40 C113.5024786 37.31761749 104.30624868 37.65814218 95.48828125 37.5859375 C94.02425599 37.56718323 92.56024106 37.54760681 91.09623718 37.5272522 C87.28075303 37.47637396 83.465234 37.43651414 79.64959717 37.39910889 C75.74092295 37.35878802 71.83238822 37.30782526 67.92382812 37.2578125 C60.28264848 37.16157942 52.64140016 37.07701004 45 37 C44.99576806 37.94221122 44.99153612 38.88442244 44.98717594 39.85518551 C44.88413305 62.74645274 44.77540432 85.63768754 44.66066074 108.52889919 C44.60530499 119.59876368 44.5518192 130.66863139 44.50268555 141.73852539 C44.45987245 151.38333081 44.41360184 161.02811226 44.36312145 170.67288071 C44.33649728 175.78305155 44.31164371 180.89321757 44.29092598 186.00341606 C44.27139499 190.80744889 44.24726204 195.61143601 44.21950912 200.41542816 C44.21011987 202.18397508 44.20245139 203.95253204 44.19658089 205.72109413 C44.18835139 208.12489935 44.17408395 210.52859269 44.15821838 212.93235779 C44.15724028 213.64148848 44.15626217 214.35061918 44.15525442 215.08123869 C44.11412121 219.88587879 44.11412121 219.88587879 43 221 C40.15072779 221.10111921 37.32621549 221.13969183 34.4765625 221.1328125 C33.19088882 221.13424759 33.19088882 221.13424759 31.87924194 221.13571167 C30.06174649 221.13639364 28.24424862 221.13453818 26.42675781 221.13037109 C23.64382437 221.12503609 20.8610533 221.13030875 18.078125 221.13671875 C16.31510381 221.13605771 14.55208272 221.13477603 12.7890625 221.1328125 C11.95460602 221.13483673 11.12014954 221.13686096 10.26040649 221.13894653 C6.9228838 221.12541294 4.18823097 221.06274366 1 220 C0.1395321 207.12353087 -0.13959852 194.3163405 -0.11352539 181.41357422 C-0.11324251 179.42079673 -0.11340322 177.42801913 -0.1139679 175.4352417 C-0.11425194 170.08522921 -0.10841935 164.73523966 -0.10139394 159.38523245 C-0.09509439 153.77188836 -0.09455142 148.15854361 -0.09336853 142.54519653 C-0.09027452 131.94225037 -0.08208744 121.33931465 -0.07201904 110.73637307 C-0.06079759 98.65396203 -0.05533232 86.57155046 -0.05032361 74.4891355 C-0.03990299 49.6594179 -0.02234135 24.82970954 0 0 Z " fill="#1B1B1B" transform="translate(807,337)"/>
<path d="M0 0 C0.8306749 -0.00095673 1.66134979 -0.00191345 2.51719666 -0.00289917 C4.26968461 -0.00357849 6.02217511 -0.00174151 7.7746582 0.00244141 C10.45855342 0.00779994 13.14228181 0.00248455 15.82617188 -0.00390625 C17.52994829 -0.00324556 19.23372459 -0.00196458 20.9375 0 C21.74067154 -0.00202423 22.54384308 -0.00404846 23.37135315 -0.00613403 C26.63927694 0.00764381 29.28013141 0.09207505 32.40234375 1.1328125 C32.42517929 2.11586868 32.44801483 3.09892487 32.47154236 4.11177063 C32.68714598 13.36741197 32.90760246 22.62292662 33.13283443 31.87833881 C33.24847702 36.6368561 33.36239787 41.39540173 33.47241211 46.15405273 C33.57860613 50.74473961 33.68928596 55.33529824 33.80310249 59.92580223 C33.84577425 61.67887733 33.88681802 63.43199283 33.92622185 65.18514442 C33.98160513 67.63698361 34.042728 70.08861648 34.10522461 72.5402832 C34.12033081 73.26820572 34.13543701 73.99612823 34.15100098 74.74610901 C34.2339223 77.79293444 34.43142002 80.22004131 35.40234375 83.1328125 C35.48462211 86.07086398 35.50800919 88.98397693 35.4846344 91.92155457 C35.48140527 92.83066646 35.47817614 93.73977836 35.47484916 94.67643911 C35.4627462 97.73509976 35.44337909 100.79367187 35.42407227 103.85229492 C35.41393243 106.03989976 35.40423844 108.2275067 35.3949585 110.41511536 C35.36844792 116.36519009 35.33567443 122.31521603 35.3018086 128.26525283 C35.26749484 134.47925218 35.23889637 140.69327772 35.20970154 146.90730286 C35.15990851 157.34080806 35.10657418 167.77429023 35.05053711 178.20776367 C34.99282548 188.95482291 34.93724039 199.70188967 34.88452148 210.44897461 C34.88127177 211.11129946 34.87802205 211.7736243 34.87467385 212.4560196 C34.85838429 215.77867135 34.84213888 219.10132331 34.82590973 222.42397535 C34.69111968 249.99362183 34.54909784 277.56322729 34.40234375 305.1328125 C28.154387 305.15808374 21.90644334 305.17564594 15.65844727 305.18774414 C13.53116361 305.19278548 11.40388344 305.19961841 9.27661133 305.20825195 C6.22606549 305.22032629 3.1755653 305.22604264 0.125 305.23046875 C-1.31092751 305.23821068 -1.31092751 305.23821068 -2.77586365 305.24610901 C-3.6567012 305.24618454 -4.53753876 305.24626007 -5.44506836 305.24633789 C-6.22450302 305.2485585 -7.00393768 305.25077911 -7.80699158 305.25306702 C-9.59765625 305.1328125 -9.59765625 305.1328125 -10.59765625 304.1328125 C-10.71775806 302.63073624 -10.76959313 301.12314193 -10.79405212 299.61647034 C-10.8122016 298.64037119 -10.83035107 297.66427204 -10.84905052 296.65859413 C-10.8639786 295.57960035 -10.87890667 294.50060658 -10.89428711 293.38891602 C-10.92318999 291.69865579 -10.92318999 291.69865579 -10.95267677 289.97424889 C-11.01529061 286.21596938 -11.07037715 282.45762234 -11.125 278.69921875 C-11.16656104 276.05489317 -11.20830671 273.41057049 -11.25022888 270.76625061 C-11.65971219 244.476159 -11.92430674 218.18454984 -12.13008499 191.89213562 C-12.16074164 187.99591434 -12.19247438 184.09970282 -12.22433472 180.20349121 C-12.7086831 120.51341794 -12.70450633 60.82445372 -12.59765625 1.1328125 C-8.40177172 -0.04220575 -4.32805496 -0.01093555 0 0 Z " fill="#1B1B1B" transform="translate(1518.59765625,249.8671875)"/>
<path d="M0 0 C0.89835068 -0.00014603 1.79670135 -0.00029205 2.72227478 -0.0004425 C5.67107618 0.00025029 8.61981324 0.00801292 11.56860352 0.01586914 C13.62126125 0.01773557 15.67391942 0.01915841 17.72657776 0.02015686 C23.11385338 0.02396432 28.50110179 0.03377942 33.8883667 0.04486084 C39.39180127 0.0551131 44.89524026 0.05966264 50.39868164 0.06469727 C61.18580293 0.07540334 71.97290408 0.09245841 82.76000977 0.11352539 C82.07698144 4.72237074 80.97985602 8.00269899 78.76000977 12.11352539 C77.84152015 13.95050463 76.92316552 15.78755179 76.00610352 17.62524414 C75.0022374 19.62982946 73.99326151 21.63185545 72.98266602 23.63305664 C72.345936 24.89737388 71.70921732 26.16169684 71.07250977 27.42602539 C70.60796387 28.34254883 70.60796387 28.34254883 70.1340332 29.27758789 C68.83095176 31.86938384 67.6790637 34.3563636 66.76000977 37.11352539 C66.09761292 37.12161224 65.43521606 37.1296991 64.75274658 37.13803101 C57.80853277 37.2246237 50.86458665 37.32414579 43.9206543 37.4309082 C41.33508834 37.46900244 38.74947291 37.50388803 36.16381836 37.53540039 C32.43007825 37.58147817 28.69667305 37.63939969 24.96313477 37.69946289 C23.82201233 37.7110141 22.68088989 37.72256531 21.50518799 37.73446655 C8.73613651 37.96506919 -4.84520082 38.58602474 -14.48999023 47.67602539 C-26.67970678 60.83107663 -26.56390689 76.85279449 -26.46704102 93.96508789 C-26.46647467 95.36644482 -26.46679779 96.76780234 -26.46792603 98.16915894 C-26.46849186 101.91607997 -26.45686467 105.66286879 -26.44277811 109.40975952 C-26.4301401 113.34681499 -26.42909009 117.28387464 -26.42672729 121.22094727 C-26.42055045 128.65071309 -26.40419193 136.08041894 -26.38402832 143.51015854 C-26.36155 151.97952562 -26.35064611 160.44889581 -26.34063745 168.91828537 C-26.31982161 186.3167332 -26.2847208 203.71512292 -26.23999023 221.11352539 C-29.65067905 222.8188698 -33.54672804 222.25499677 -37.29858398 222.24633789 C-38.64872337 222.24777298 -38.64872337 222.24777298 -40.02613831 222.24923706 C-41.93181427 222.24991825 -43.83749254 222.2480682 -45.74316406 222.24389648 C-48.66208105 222.2385536 -51.58084372 222.24384032 -54.49975586 222.25024414 C-56.34936557 222.24958323 -58.19897519 222.24830179 -60.04858398 222.24633789 C-60.92365097 222.24836212 -61.79871796 222.25038635 -62.70030212 222.25247192 C-63.51447098 222.24931976 -64.32863983 222.2461676 -65.16748047 222.24291992 C-65.88314682 222.24212433 -66.59881317 222.24132874 -67.33616638 222.24050903 C-69.23999023 222.11352539 -69.23999023 222.11352539 -72.23999023 221.11352539 C-72.98445721 211.20265487 -73.42544345 201.34307088 -73.55639648 191.40258789 C-73.57724742 190.00900429 -73.59833724 188.61542424 -73.61964417 187.22184753 C-73.67514075 183.4988238 -73.72487052 179.77574652 -73.77262115 176.05261612 C-73.80269271 173.72283855 -73.83404753 171.39308108 -73.86566162 169.06332397 C-74.17042138 146.38849713 -74.3455824 123.71435401 -74.36292648 101.03746796 C-74.36497583 98.94076651 -74.36872721 96.84407382 -74.37283325 94.74737549 C-74.37980399 90.83425689 -74.37713033 86.92117996 -74.37280273 83.00805664 C-74.37478165 81.87353561 -74.37676056 80.73901459 -74.37879944 79.57011414 C-74.34886153 69.22202995 -73.96001489 59.09252094 -71.05249023 49.11352539 C-70.83181885 48.34588867 -70.61114746 47.57825195 -70.38378906 46.78735352 C-65.99432573 32.14455799 -58.20389178 18.59775264 -44.43725586 11.13647461 C-35.32591826 6.37652558 -26.45553234 2.76163285 -16.23999023 1.11352539 C-15.21514023 0.94111832 -14.19029022 0.76871124 -13.13438416 0.59107971 C-8.72072624 0.04985007 -4.44025103 -0.01911616 0 0 Z " fill="#1B1B1B" transform="translate(373.239990234375,332.886474609375)"/>
<path d="M0 0 C1.97214478 -0.00472824 1.97214478 -0.00472824 3.98413086 -0.009552 C5.42561883 -0.00776217 6.86710649 -0.0057112 8.30859375 -0.00341797 C9.7806805 -0.00409131 11.25276715 -0.00506158 12.72485352 -0.00631714 C15.81169695 -0.0077927 18.89851148 -0.00564409 21.98535156 -0.00097656 C25.94674481 0.00472065 29.9080703 0.00144089 33.86946106 -0.00454903 C36.90971387 -0.00815845 39.94995056 -0.00701429 42.99020386 -0.00442123 C44.4510804 -0.00375302 45.9119584 -0.00457671 47.37283325 -0.00690079 C49.41261773 -0.0094335 51.45240732 -0.0048904 53.4921875 0 C55.23520142 0.00119339 55.23520142 0.00119339 57.01342773 0.00241089 C59.74609375 0.12939453 59.74609375 0.12939453 61.74609375 1.12939453 C61.72325821 1.71201553 61.70042267 2.29463654 61.67689514 2.89491272 C61.4328768 9.12620458 61.19022512 15.3575487 60.94845581 21.58892822 C60.85549214 23.98375193 60.76233332 26.37856808 60.66897583 28.77337646 C59.99271285 46.09205062 59.99271285 46.09205062 59.42578125 63.41455078 C59.40384201 64.15131546 59.38190277 64.88808014 59.35929871 65.64717102 C59.26194574 68.95368746 59.17092942 72.26022279 59.08813477 75.56713867 C59.04064087 77.25697876 59.04064087 77.25697876 58.9921875 78.98095703 C58.95629517 80.41689209 58.95629517 80.41689209 58.91967773 81.88183594 C58.74609375 84.12939453 58.74609375 84.12939453 57.74609375 86.12939453 C55.97242141 103.74602556 56.12976284 121.6525289 55.62109375 139.34765625 C55.52000889 142.85570347 55.41455307 146.36359731 55.30639648 149.87143326 C55.24709373 151.83841428 55.19283944 153.80554542 55.13867188 155.77267456 C55.10193359 156.95886383 55.06519531 158.1450531 55.02734375 159.3671875 C54.99705078 160.41067352 54.96675781 161.45415955 54.93554688 162.52926636 C54.74609375 165.12939453 54.74609375 165.12939453 53.74609375 168.12939453 C53.61473905 169.61026388 53.53205217 171.09574609 53.48071289 172.58154297 C53.43044701 173.9287442 53.43044701 173.9287442 53.37916565 175.30316162 C53.34685349 176.27191223 53.31454132 177.24066284 53.28125 178.23876953 C53.20270463 180.29346586 53.12392105 182.3481531 53.04492188 184.40283203 C52.9254766 187.63938216 52.808712 190.87598255 52.6965332 194.11279297 C52.5864715 197.23844975 52.46574087 200.36355873 52.34375 203.48876953 C52.31346207 204.44942322 52.28317413 205.4100769 52.25196838 206.39984131 C52.04244649 211.60459427 51.6788271 216.26043266 49.74609375 221.12939453 C47.0025614 222.04390531 45.38989854 222.25573828 42.56591797 222.25878906 C41.30979202 222.2635173 41.30979202 222.2635173 40.02828979 222.26834106 C38.67817307 222.26530472 38.67817307 222.26530472 37.30078125 222.26220703 C36.37516388 222.26316376 35.44954651 222.26412048 34.49588013 222.2651062 C32.54070976 222.2657865 30.58553712 222.26394264 28.63037109 222.25976562 C25.62592547 222.25440316 22.62162853 222.2597219 19.6171875 222.26611328 C17.72005175 222.26545271 15.8229161 222.26417199 13.92578125 222.26220703 C13.02165497 222.26423126 12.11752869 222.26625549 11.18600464 222.26834106 C4.86105165 222.24435243 4.86105165 222.24435243 3.74609375 221.12939453 C3.47610474 217.91952523 3.29997938 214.71708594 3.140625 211.50048828 C3.24903855 208.01995176 3.24903855 208.01995176 1.74609375 205.12939453 C0.27509086 193.87333812 0.43240386 182.35499556 0.19384766 171.02246094 C0.14220265 168.62831199 0.08503149 166.23434182 0.02734375 163.84033203 C0.01376831 163.10914154 0.00019287 162.37795105 -0.01379395 161.62460327 C-0.0897369 158.54209715 -0.27188166 156.07546831 -1.25390625 153.12939453 C-2.45654543 142.35575188 -2.4818393 131.43101899 -2.80639648 120.60693359 C-3.19039951 108.57533027 -3.85487841 96.56518221 -4.59350586 84.55053711 C-5.05666994 76.84743522 -5.33785036 69.19693281 -5.18920898 61.4753418 C-4.9838264 59.17035951 -4.9838264 59.17035951 -6.25390625 58.12939453 C-7.19626624 49.8459339 -7.31317468 41.53759841 -7.23461914 33.2097168 C-7.17542261 22.50964157 -7.76950314 11.81589389 -8.25390625 1.12939453 C-5.45124217 -0.27193751 -3.13505287 0.00214648 0 0 Z " fill="#046B03" transform="translate(697.25390625,334.87060546875)"/>
<path d="M0 0 C0.77279297 -0.01224609 1.54558594 -0.02449219 2.34179688 -0.03710938 C13.95351472 -0.06655583 21.7727846 4.97839181 30.0625 12.75 C32.86369186 15.68895539 34.12585274 18.18546169 35.0625 22.1875 C35.40152344 23.01121094 35.74054688 23.83492187 36.08984375 24.68359375 C37.44033618 29.54862071 37.35247821 34.1635721 37.3125 39.1875 C37.32410156 40.64542969 37.32410156 40.64542969 37.3359375 42.1328125 C37.31699621 49.08426671 36.43276833 54.43203448 32.625 60.375 C32.21378906 61.02855469 31.80257812 61.68210937 31.37890625 62.35546875 C30.06315701 64.18658565 28.77125316 65.71569395 27.0625 67.1875 C26.4025 67.1875 25.7425 67.1875 25.0625 67.1875 C24.5675 68.6725 24.5675 68.6725 24.0625 70.1875 C21.72649982 71.74483345 19.57560566 72.98350261 17.0625 74.1875 C16.44632813 74.49171875 15.83015625 74.7959375 15.1953125 75.109375 C9.99985693 77.25224773 4.98301383 77.46897281 -0.5625 77.5 C-1.27905762 77.50547852 -1.99561523 77.51095703 -2.73388672 77.51660156 C-7.43899598 77.45367873 -11.43362967 76.67093886 -15.9375 75.1875 C-16.81277344 74.90648437 -17.68804688 74.62546875 -18.58984375 74.3359375 C-19.34394531 74.08070313 -20.09804688 73.82546875 -20.875 73.5625 C-21.64714844 73.30210937 -22.41929687 73.04171875 -23.21484375 72.7734375 C-23.78332031 72.58007812 -24.35179687 72.38671875 -24.9375 72.1875 C-24.9375 71.5275 -24.9375 70.8675 -24.9375 70.1875 C-26.2575 69.5275 -27.5775 68.8675 -28.9375 68.1875 C-28.9375 67.5275 -28.9375 66.8675 -28.9375 66.1875 C-30.2575 65.5275 -31.5775 64.8675 -32.9375 64.1875 C-32.9375 63.1975 -32.9375 62.2075 -32.9375 61.1875 C-33.5975 61.1875 -34.2575 61.1875 -34.9375 61.1875 C-38.45013403 55.29533969 -40.06247739 51.42185457 -40.0703125 44.46875 C-40.07160156 43.37175781 -40.07289063 42.27476562 -40.07421875 41.14453125 C-40.07035156 40.00371094 -40.06648437 38.86289062 -40.0625 37.6875 C-40.06636719 36.54667969 -40.07023438 35.40585937 -40.07421875 34.23046875 C-40.07292969 33.13347656 -40.07164062 32.03648437 -40.0703125 30.90625 C-40.06862061 29.40481445 -40.06862061 29.40481445 -40.06689453 27.87304688 C-39.95169427 25.48209806 -39.62125146 23.47165086 -38.9375 21.1875 C-38.2775 21.1875 -37.6175 21.1875 -36.9375 21.1875 C-36.793125 20.3625 -36.64875 19.5375 -36.5 18.6875 C-34.50239872 14.21287314 -31.66604491 12.00338668 -27.93359375 8.921875 C-25.85327657 7.33725817 -25.85327657 7.33725817 -24.9375 5.1875 C-22.86328125 4.15234375 -22.86328125 4.15234375 -20.25 3.125 C-18.97576172 2.61259766 -18.97576172 2.61259766 -17.67578125 2.08984375 C-11.81707586 0.15922899 -6.10493211 0.00506633 0 0 Z " fill="#004B7C" transform="translate(724.9375,579.8125)"/>
<path d="M0 0 C-1.40883327 4.09842405 -3.49038357 7.45591603 -5.87890625 11.03515625 C-9.69140333 17.71698912 -8.88410885 27.56078576 -8 35 C-5.25612771 44.16311594 1.16228872 53.18850191 9.3125 58.375 C17.95447429 62.65670545 27.80515861 64.75368672 37.1875 62.09765625 C39.28123365 61.39051784 41.36470991 60.65184295 43.43359375 59.875 C46 59 46 59 49 59 C49.33 58.01 49.66 57.02 50 56 C50.99 55.34 51.98 54.68 53 54 C53.99 54.33 54.98 54.66 56 55 C49.94465172 61.50389259 42.74851594 64.86048129 33.8828125 65.2578125 C32.38038926 65.28740965 30.87769859 65.30553406 29.375 65.3125 C28.65860352 65.31789795 27.94220703 65.3232959 27.20410156 65.32885742 C22.49876435 65.26648838 18.50404027 64.48349483 14 63 C13.12472656 62.71898437 12.24945312 62.43796875 11.34765625 62.1484375 C10.59355469 61.89320313 9.83945312 61.63796875 9.0625 61.375 C8.29035156 61.11460937 7.51820313 60.85421875 6.72265625 60.5859375 C6.15417969 60.39257812 5.58570313 60.19921875 5 60 C5 59.34 5 58.68 5 58 C3.68 57.34 2.36 56.68 1 56 C1 55.34 1 54.68 1 54 C-0.32 53.34 -1.64 52.68 -3 52 C-3 51.01 -3 50.02 -3 49 C-3.66 49 -4.32 49 -5 49 C-8.51263403 43.10783969 -10.12497739 39.23435457 -10.1328125 32.28125 C-10.13410156 31.18425781 -10.13539063 30.08726562 -10.13671875 28.95703125 C-10.13285156 27.81621094 -10.12898437 26.67539062 -10.125 25.5 C-10.12886719 24.35917969 -10.13273438 23.21835937 -10.13671875 22.04296875 C-10.13542969 20.94597656 -10.13414062 19.84898437 -10.1328125 18.71875 C-10.13112061 17.21731445 -10.13112061 17.21731445 -10.12939453 15.68554688 C-10.01419427 13.29459806 -9.68375146 11.28415086 -9 9 C-8.34 9 -7.68 9 -7 9 C-6.731875 8.071875 -6.46375 7.14375 -6.1875 6.1875 C-3.88235294 0 -3.88235294 0 0 0 Z " fill="#03446E" transform="translate(695,592)"/>
<path d="M0 0 C8.60414038 1.19416895 16.71642311 8.30643632 22 15 C23.3125 18.0625 23.3125 18.0625 24 21 C24.51240234 22.25490234 24.51240234 22.25490234 25.03515625 23.53515625 C26.33490306 28.20266807 26.21433399 32.55783623 26.125 37.375 C26.11597656 38.30183594 26.10695313 39.22867188 26.09765625 40.18359375 C26.07422937 42.45600077 26.04142748 44.7278618 26 47 C25.67 47 25.34 47 25 47 C24.92652344 45.26363281 24.92652344 45.26363281 24.8515625 43.4921875 C24.77648522 41.9531033 24.70093957 40.4140419 24.625 38.875 C24.5940625 38.11445312 24.563125 37.35390625 24.53125 36.5703125 C24.29684786 32.03853771 23.69657465 28.2587486 22 24 C21.57074219 22.83726562 21.14148438 21.67453125 20.69921875 20.4765625 C18.84386453 16.68055041 16.82381761 14.32260849 13.8125 11.375 C13.32998779 10.9020752 12.84747559 10.42915039 12.3503418 9.94189453 C8.52695712 6.28617441 4.58368856 3.5945407 0 1 C0 0.67 0 0.34 0 0 Z " fill="#05426A" transform="translate(736,581)"/>
<path d="M0 0 C0.99 0.33 1.98 0.66 3 1 C-3.10637704 7.55870126 -10.32760878 10.8712405 -19.2578125 11.2578125 C-20.79669842 11.28740646 -22.33584531 11.3055333 -23.875 11.3125 C-24.99986816 11.32059692 -24.99986816 11.32059692 -26.14746094 11.32885742 C-29.94599739 11.2794197 -31.77029228 11.15313848 -35 9 C-33.98421875 9.04640625 -32.9684375 9.0928125 -31.921875 9.140625 C-23.73633373 9.39601788 -17.09350672 8.94886888 -9.35546875 5.875 C-7 5 -7 5 -4 5 C-3.67 4.01 -3.34 3.02 -3 2 C-2.01 1.34 -1.02 0.68 0 0 Z " fill="#063F64" transform="translate(748,646)"/>
<path d="M0 0 C0 0.66 0 1.32 0 2 C-6.93 3.485 -6.93 3.485 -14 5 C-14 4.34 -14 3.68 -14 3 C-8.99067246 -0.00559652 -5.67276511 -0.29341888 0 0 Z " fill="#03446E" transform="translate(714,582)"/>
<path d="M0 0 C0.33 0.99 0.66 1.98 1 3 C-0.4375 5.6875 -0.4375 5.6875 -2 8 C-2.66 7.67 -3.32 7.34 -4 7 C-3.39816251 4.97954558 -2.72693904 2.97888961 -2 1 C-1.34 0.67 -0.68 0.34 0 0 Z " fill="#073E61" transform="translate(759,633)"/>
</svg>
